# xmcd
#
# Track frame offsets:
#	150
#	18740
#	34990
#	49831
#	59347
#	72664
#	85531
#	97405
#	107886
#	119891
#	130903
#	145240
#	157232
#	166091
#	178730
#	192217
#
# Disc length: 2744 seconds
#
# Revision: 1
# Processed by: cddbd v1.5.1PL2 Copyright (c) Steve Scherf et al.
# Submitted via: audiograbber 1.83.01
#
DISCID=f70ab610
DTITLE=Various Artist - Country Songs CD3
DYEAR=2006
DGENRE=Country
TTITLE0=The Bellamy Brothers - If I Said You Had A Beautiful Body
TTITLE1=Billie Jo Spears - Blanket On The Ground
TTITLE2=Frankie Lane - Sixteen's Tons
TTITLE3=Dolly Parton - Release Me
TTITLE4=Paggi Page - Tennessee Waltz
TTITLE5=Su Stevens - Love Me Tender
TTITLE6=Kenny Rogers - Ruben James
TTITLE7=Dolly Parton - It Wasn't God Who Made Honky Tonk Angels
TTITLE8=Tammy Wynette - Crying Inn The Rain
TTITLE9=Waylon Jennings - Big Mamou
TTITLE10=Billie Jo Spears - Sunshine
TTITLE11=Waylon Jennings - Don't Think Twice It's Allright
TTITLE12=Johnny Cash - Two Timin' Woman
TTITLE13=Lee Hazelwood - These Boots Are Made For Walking
TTITLE14=Glen Campell - Rhinestone Cowboy
TTITLE15=Willie Nelson - Home Is Where You're Happy
EXTD=
EXTT0=
EXTT1=
EXTT2=
EXTT3=
EXTT4=
EXTT5=
EXTT6=
EXTT7=
EXTT8=
EXTT9=
EXTT10=
EXTT11=
EXTT12=
EXTT13=
EXTT14=
EXTT15=
PLAYORDER=
